<svg height="512" viewBox="0 0 128 128" width="512" xmlns="http://www.w3.org/2000/svg"><g><path d="m64 102.5a8.169 8.169 0 0 1 -8.14-8.857l2.252-26.643h11.776l2.252 26.643a8.169 8.169 0 0 1 -8.14 8.857z" fill="#b5d2d7"/><path d="m88.021 55.774c0 10.675-10.754 19.326-24.021 19.326s-24.021-8.651-24.021-19.326 10.754-30.274 24.021-30.274 24.021 19.6 24.021 30.274z" fill="#fd5d5f"/><g fill="#e2ebf0"><circle cx="54.673" cy="52.915" r="5.737"/><circle cx="72.588" cy="60.543" r="3.077"/><path d="m69.937 26.8a11.564 11.564 0 1 0 15.252 17.382c-3.142-7.232-8.651-14.496-15.252-17.382z"/></g></g></svg>